<svg xmlns="http://www.w3.org/2000/svg" viewBox="0 0 64 64"><path fill-rule="evenodd" d="M32.01 56.02v0c-13.26 0-24-10.75-24-24 0-13.26 10.74-24 24-24 13.25 0 24 10.74 24 24v0c0 13.25-10.75 24-24 24Zm0-44.01v0c-11.05 0-20.01 8.95-20.01 20 0 11.04 8.95 20 20 20C43.04 52 52 43.05 52 32v0c0-11.05-8.96-20.01-20.01-20.01 -.01-.01-.01 0-.01 0Zm2 33v0c0 1.1-.9 2-2 2 -1.11 0-2-.9-2-2v-11h-11v0c-1.11 0-2-.9-2-2 0-1.11.89-2 2-2h11v-11 0c0-1.11.89-2 2-2 1.1 0 2 .89 2 2v11h11v0c1.1 0 2 .89 2 2 0 1.1-.9 2-2 2h-11Z" fill="#55534E" /></svg>